<?xml version="1.0" encoding="UTF-8" standalone="no"?>
<svg
   width="256"
   height="256"
   viewBox="0 0 256 256"
   fill="none"
   version="1.1"
   id="svg4"
   sodipodi:docname="ape.svg"
   inkscape:version="1.4.2 (ebf0e940d0, 2025-05-08)"
   xmlns:inkscape="http://www.inkscape.org/namespaces/inkscape"
   xmlns:sodipodi="http://sodipodi.sourceforge.net/DTD/sodipodi-0.dtd"
   xmlns:xlink="http://www.w3.org/1999/xlink"
   xmlns="http://www.w3.org/2000/svg"
   xmlns:svg="http://www.w3.org/2000/svg">
  <sodipodi:namedview
     id="namedview4"
     pagecolor="#ffffff"
     bordercolor="#000000"
     borderopacity="0.25"
     inkscape:showpageshadow="2"
     inkscape:pageopacity="0.0"
     inkscape:pagecheckerboard="0"
     inkscape:deskcolor="#d1d1d1"
     inkscape:zoom="2.5429688"
     inkscape:cx="128.9831"
     inkscape:cy="157.09984"
     inkscape:current-layer="svg4" />
  <defs
     id="defs3">
    <linearGradient
       id="linearGradient9"
       x1="0%"
       y1="0%"
       x2="100%"
       y2="100%">
      <stop
         offset="0"
         style="stop-color:#68539b;stop-opacity:1;"
         id="stop7" />
      <stop
         offset="0.49963892"
         style="stop-color:#396499;stop-opacity:1;"
         id="stop8" />
      <stop
         offset="0.99963892"
         style="stop-color:#1d7453;stop-opacity:1;"
         id="stop9" />
    </linearGradient>
    <linearGradient
       id="aurora"
       x1="0%"
       y1="0%"
       x2="100%"
       y2="100%">
      <stop
         offset="0%"
         style="stop-color:#A78BFA"
         id="stop1" />
      <stop
         offset="50%"
         style="stop-color:#60A5FA"
         id="stop2" />
      <stop
         offset="100%"
         style="stop-color:#34D399"
         id="stop3" />
    </linearGradient>
    <filter
       id="blur"
       x="-0.16"
       y="-0.16"
       width="1.32"
       height="1.32">
      <feGaussianBlur
         in="SourceGraphic"
         stdDeviation="8"
         id="feGaussianBlur3" />
    </filter>
    <linearGradient
       inkscape:collect="always"
       xlink:href="#aurora"
       id="linearGradient4"
       x1="48.8"
       y1="48.8"
       x2="207.20001"
       y2="207.20001"
       gradientUnits="userSpaceOnUse"
       gradientTransform="translate(1.4560547e-6,60.000005)" />
    <linearGradient
       inkscape:collect="always"
       xlink:href="#linearGradient9"
       id="linearGradient5"
       x1="57.198771"
       y1="214.29219"
       x2="108.25756"
       y2="265.35098"
       gradientTransform="matrix(1.547236,0,0,0.64631379,-7.5293945e-6,4.9923248)"
       gradientUnits="userSpaceOnUse" />
    <linearGradient
       inkscape:collect="always"
       xlink:href="#aurora"
       id="linearGradient12"
       x1="46.589572"
       y1="77.27051"
       x2="152.1926"
       y2="182.87354"
       gradientTransform="scale(1.2878418,0.77649287)"
       gradientUnits="userSpaceOnUse" />
    <linearGradient
       inkscape:collect="always"
       xlink:href="#linearGradient9"
       id="linearGradient13"
       gradientUnits="userSpaceOnUse"
       gradientTransform="matrix(1.547236,0,0,0.64631379,-7.5293945e-6,4.9923248)"
       x1="57.198771"
       y1="214.29219"
       x2="108.25756"
       y2="265.35098" />
    <linearGradient
       inkscape:collect="always"
       xlink:href="#linearGradient9"
       id="linearGradient14"
       gradientUnits="userSpaceOnUse"
       gradientTransform="matrix(1.547236,0,0,0.64631379,-7.5293945e-6,4.9923248)"
       x1="57.198771"
       y1="214.29219"
       x2="108.25756"
       y2="265.35098" />
  </defs>
  <circle
     cx="128"
     cy="188"
     r="60"
     fill="url(#aurora)"
     opacity="0.2"
     filter="url(#blur)"
     id="circle3"
     style="display:none;fill:url(#linearGradient4)"
     transform="matrix(1.7050536,0,0,1.7050536,-90.246859,-196.55007)" />
  <path
     d="m 89.999992,144.99232 v 20 q 0,10 10.000005,10 h 55.999993 q 10,0 10,-10 v -20"
     stroke="url(#aurora)"
     stroke-width="3"
     stroke-linecap="round"
     fill="none"
     opacity="0.5"
     id="path4"
     style="display:none;stroke:url(#linearGradient5)" />
  <rect
     style="font-variation-settings:'opsz' 32;display:none;fill:url(#linearGradient5);fill-opacity:1;stroke-width:10.3664;stroke-linecap:round;stroke-linejoin:round;paint-order:fill markers stroke"
     id="rect5"
     width="73.536095"
     height="50.728111"
     x="91.231949"
     y="124.26421"
     ry="6.8981133" />
  <g
     id="g12"
     transform="matrix(1.5950314,0,0,1.5950314,-76.164019,-47.409961)">
    <g
       id="g3">
      <path
         d="m 80,140 c -10,0 -20,-10 -20,-20 0,-15 12,-25 25,-25 3,-20 20,-35 43,-35 23,0 40,15 43,35 13,0 25,10 25,25 0,10 -10,20 -20,20 q -16,2 -48,2 -32,0 -48,-2 z"
         fill="url(#aurora)"
         opacity="0.9"
         id="path3"
         style="fill:url(#linearGradient12)" />
    </g>
    <path
       d="M 164.76758,141.0332 C 155.09062,141.67797 142.83507,142 128,142 c -14.83507,0 -27.09062,-0.32203 -36.767578,-0.9668 v 27.06055 c 0,3.82155 3.076883,6.89844 6.898437,6.89844 h 59.738281 c 3.82156,0 6.89844,-3.07689 6.89844,-6.89844 z"
       style="font-variation-settings:'opsz' 32;display:inline;opacity:0.071;fill:url(#linearGradient13);stroke-width:10.3664;stroke-linecap:round;stroke-linejoin:round;paint-order:fill markers stroke"
       id="path5"
       inkscape:label="folder1" />
    <path
       d="M 164.76758,141.0332 C 155.09062,141.67797 142.83507,142 128,142 c -14.83507,0 -27.09062,-0.32203 -36.767578,-0.9668 v 27.06055 c 0,3.82155 3.076883,6.89844 6.898437,6.89844 h 59.738281 c 3.82156,0 6.89844,-3.07689 6.89844,-6.89844 z"
       style="font-variation-settings:'opsz' 32;opacity:0.065;mix-blend-mode:exclusion;fill:url(#linearGradient14);stroke-width:10.3664;stroke-linecap:round;stroke-linejoin:round;paint-order:fill markers stroke"
       id="path7"
       inkscape:label="folder" />
  </g>
</svg>
